<mxfile host="app.diagrams.net" modified="2023-06-01T04:20:07.344Z" agent="Mozilla/5.0 (Windows NT 10.0; Win64; x64; rv:109.0) Gecko/20100101 Firefox/113.0" etag="5dZ8D0KFJeQP8RXLKrXq" version="21.3.2" type="github">
  <diagram name="Page-1" id="ZU61pW85Vs68K8lzghGT">
    <mxGraphModel dx="954" dy="3913" grid="1" gridSize="10" guides="1" tooltips="1" connect="1" arrows="1" fold="1" page="1" pageScale="1" pageWidth="1100" pageHeight="1700" math="0" shadow="0">
      <root>
        <mxCell id="0" />
        <mxCell id="1" parent="0" />
        <mxCell id="4tsxPiN9Ej_s7Ec1uIhf-56" value="Actor" style="shape=umlActor;verticalLabelPosition=bottom;verticalAlign=top;html=1;outlineConnect=0;" parent="1" vertex="1">
          <mxGeometry x="90" y="-1640" width="30" height="60" as="geometry" />
        </mxCell>
        <mxCell id="4tsxPiN9Ej_s7Ec1uIhf-59" value="" style="endArrow=none;dashed=1;endFill=0;endSize=12;html=1;rounded=0;" parent="1" edge="1">
          <mxGeometry width="160" relative="1" as="geometry">
            <mxPoint x="104.5" y="-1560" as="sourcePoint" />
            <mxPoint x="105" y="-720" as="targetPoint" />
          </mxGeometry>
        </mxCell>
        <mxCell id="4tsxPiN9Ej_s7Ec1uIhf-60" value="Database" style="html=1;whiteSpace=wrap;" parent="1" vertex="1">
          <mxGeometry x="530" y="-1635" width="110" height="50" as="geometry" />
        </mxCell>
        <mxCell id="4tsxPiN9Ej_s7Ec1uIhf-61" value="Admin panel" style="html=1;whiteSpace=wrap;" parent="1" vertex="1">
          <mxGeometry x="280" y="-1635" width="110" height="50" as="geometry" />
        </mxCell>
        <mxCell id="4tsxPiN9Ej_s7Ec1uIhf-62" value="" style="endArrow=none;dashed=1;endFill=0;endSize=12;html=1;rounded=0;" parent="1" source="4tsxPiN9Ej_s7Ec1uIhf-93" edge="1">
          <mxGeometry width="160" relative="1" as="geometry">
            <mxPoint x="334.5" y="-1585" as="sourcePoint" />
            <mxPoint x="335" y="-720" as="targetPoint" />
          </mxGeometry>
        </mxCell>
        <mxCell id="4tsxPiN9Ej_s7Ec1uIhf-63" value="" style="endArrow=none;dashed=1;endFill=0;endSize=12;html=1;rounded=0;" parent="1" source="4tsxPiN9Ej_s7Ec1uIhf-95" edge="1">
          <mxGeometry width="160" relative="1" as="geometry">
            <mxPoint x="584.5" y="-1585" as="sourcePoint" />
            <mxPoint x="585" y="-720" as="targetPoint" />
          </mxGeometry>
        </mxCell>
        <mxCell id="4tsxPiN9Ej_s7Ec1uIhf-64" value="&lt;pre&gt;&lt;code class=&quot;!whitespace-pre hljs language-rust&quot;&gt;Navigates to manage staff &lt;br&gt;salary page&lt;/code&gt;&lt;/pre&gt;" style="text;html=1;align=center;verticalAlign=middle;resizable=0;points=[];autosize=1;strokeColor=none;fillColor=none;" parent="1" vertex="1">
          <mxGeometry x="110" y="-1550" width="210" height="70" as="geometry" />
        </mxCell>
        <mxCell id="4tsxPiN9Ej_s7Ec1uIhf-65" value="&lt;pre&gt;&lt;code class=&quot;!whitespace-pre hljs language-rust&quot;&gt;Show manage staff salary page&lt;/code&gt;&lt;/pre&gt;" style="text;html=1;align=center;verticalAlign=middle;resizable=0;points=[];autosize=1;strokeColor=none;fillColor=none;" parent="1" vertex="1">
          <mxGeometry x="100" y="-1480" width="230" height="50" as="geometry" />
        </mxCell>
        <mxCell id="4tsxPiN9Ej_s7Ec1uIhf-66" value="&lt;pre&gt;&lt;code class=&quot;!whitespace-pre hljs language-rust&quot;&gt;Selects staff member to manage&lt;/code&gt;&lt;/pre&gt;" style="text;html=1;align=center;verticalAlign=middle;resizable=0;points=[];autosize=1;strokeColor=none;fillColor=none;" parent="1" vertex="1">
          <mxGeometry x="100" y="-1410" width="230" height="50" as="geometry" />
        </mxCell>
        <mxCell id="4tsxPiN9Ej_s7Ec1uIhf-67" value="&lt;pre&gt;&lt;code class=&quot;!whitespace-pre hljs language-rust&quot;&gt;Queries database for &lt;span class=&quot;hljs-title class_&quot;&gt;staff&lt;/span&gt; &lt;br&gt;salary data&lt;/code&gt;&lt;/pre&gt;" style="text;html=1;align=center;verticalAlign=middle;resizable=0;points=[];autosize=1;strokeColor=none;fillColor=none;" parent="1" vertex="1">
          <mxGeometry x="360" y="-1360" width="210" height="70" as="geometry" />
        </mxCell>
        <mxCell id="4tsxPiN9Ej_s7Ec1uIhf-68" value="&lt;pre&gt;&lt;code class=&quot;!whitespace-pre hljs language-rust&quot;&gt;Returns staff salary data&lt;/code&gt;&lt;/pre&gt;" style="text;html=1;align=center;verticalAlign=middle;resizable=0;points=[];autosize=1;strokeColor=none;fillColor=none;" parent="1" vertex="1">
          <mxGeometry x="360" y="-1282" width="200" height="50" as="geometry" />
        </mxCell>
        <mxCell id="4tsxPiN9Ej_s7Ec1uIhf-69" value="&lt;pre&gt;&lt;code class=&quot;!whitespace-pre hljs language-rust&quot;&gt;Show staff salary data&lt;/code&gt;&lt;/pre&gt;" style="text;html=1;align=center;verticalAlign=middle;resizable=0;points=[];autosize=1;strokeColor=none;fillColor=none;" parent="1" vertex="1">
          <mxGeometry x="125" y="-1232" width="180" height="50" as="geometry" />
        </mxCell>
        <mxCell id="4tsxPiN9Ej_s7Ec1uIhf-70" value="&lt;pre&gt;&lt;code class=&quot;!whitespace-pre hljs language-rust&quot;&gt;Updates staff salary information&lt;/code&gt;&lt;/pre&gt;" style="text;html=1;align=center;verticalAlign=middle;resizable=0;points=[];autosize=1;strokeColor=none;fillColor=none;" parent="1" vertex="1">
          <mxGeometry x="95" y="-1172" width="250" height="50" as="geometry" />
        </mxCell>
        <mxCell id="4tsxPiN9Ej_s7Ec1uIhf-71" value="&lt;pre&gt;&lt;code class=&quot;!whitespace-pre hljs language-rust&quot;&gt;Updates staff salary information &lt;br&gt;in database&lt;/code&gt;&lt;/pre&gt;" style="text;html=1;align=center;verticalAlign=middle;resizable=0;points=[];autosize=1;strokeColor=none;fillColor=none;" parent="1" vertex="1">
          <mxGeometry x="335" y="-1122" width="250" height="70" as="geometry" />
        </mxCell>
        <mxCell id="4tsxPiN9Ej_s7Ec1uIhf-72" value="&lt;pre&gt;&lt;code class=&quot;!whitespace-pre hljs language-rust&quot;&gt;Returns confirmation of update&lt;/code&gt;&lt;/pre&gt;" style="text;html=1;align=center;verticalAlign=middle;resizable=0;points=[];autosize=1;strokeColor=none;fillColor=none;" parent="1" vertex="1">
          <mxGeometry x="345" y="-1052" width="230" height="50" as="geometry" />
        </mxCell>
        <mxCell id="4tsxPiN9Ej_s7Ec1uIhf-73" value="&lt;pre&gt;&lt;code class=&quot;!whitespace-pre hljs language-rust&quot;&gt;Show confirmation of update&lt;/code&gt;&lt;/pre&gt;" style="text;html=1;align=center;verticalAlign=middle;resizable=0;points=[];autosize=1;strokeColor=none;fillColor=none;" parent="1" vertex="1">
          <mxGeometry x="115" y="-1010" width="210" height="50" as="geometry" />
        </mxCell>
        <mxCell id="4tsxPiN9Ej_s7Ec1uIhf-74" value="&lt;pre&gt;&lt;code class=&quot;!whitespace-pre hljs language-rust&quot;&gt;Navigates to salary history page&lt;/code&gt;&lt;/pre&gt;" style="text;html=1;align=center;verticalAlign=middle;resizable=0;points=[];autosize=1;strokeColor=none;fillColor=none;" parent="1" vertex="1">
          <mxGeometry x="95" y="-950" width="250" height="50" as="geometry" />
        </mxCell>
        <mxCell id="4tsxPiN9Ej_s7Ec1uIhf-75" value="&lt;pre&gt;&lt;code class=&quot;!whitespace-pre hljs language-rust&quot;&gt;Queries database for &lt;span class=&quot;hljs-title class_&quot;&gt;staff&lt;/span&gt; salary &lt;br&gt;history&lt;/code&gt;&lt;/pre&gt;" style="text;html=1;align=center;verticalAlign=middle;resizable=0;points=[];autosize=1;strokeColor=none;fillColor=none;" parent="1" vertex="1">
          <mxGeometry x="335" y="-910" width="260" height="70" as="geometry" />
        </mxCell>
        <mxCell id="4tsxPiN9Ej_s7Ec1uIhf-76" value="&lt;pre&gt;&lt;code class=&quot;!whitespace-pre hljs language-rust&quot;&gt;Returns staff salary history&lt;/code&gt;&lt;/pre&gt;" style="text;html=1;align=center;verticalAlign=middle;resizable=0;points=[];autosize=1;strokeColor=none;fillColor=none;" parent="1" vertex="1">
          <mxGeometry x="355" y="-830" width="220" height="50" as="geometry" />
        </mxCell>
        <mxCell id="4tsxPiN9Ej_s7Ec1uIhf-77" value="&lt;pre&gt;&lt;code class=&quot;!whitespace-pre hljs language-rust&quot;&gt;Show staff salary history&lt;/code&gt;&lt;/pre&gt;" style="text;html=1;align=center;verticalAlign=middle;resizable=0;points=[];autosize=1;strokeColor=none;fillColor=none;" parent="1" vertex="1">
          <mxGeometry x="120" y="-790" width="200" height="50" as="geometry" />
        </mxCell>
        <mxCell id="4tsxPiN9Ej_s7Ec1uIhf-78" value="" style="endArrow=block;endFill=0;endSize=12;html=1;rounded=0;" parent="1" edge="1">
          <mxGeometry width="160" relative="1" as="geometry">
            <mxPoint x="110" y="-1500" as="sourcePoint" />
            <mxPoint x="330" y="-1500" as="targetPoint" />
          </mxGeometry>
        </mxCell>
        <mxCell id="4tsxPiN9Ej_s7Ec1uIhf-79" value="" style="endArrow=block;endFill=0;endSize=12;html=1;rounded=0;" parent="1" edge="1">
          <mxGeometry width="160" relative="1" as="geometry">
            <mxPoint x="330" y="-1440" as="sourcePoint" />
            <mxPoint x="110" y="-1440" as="targetPoint" />
          </mxGeometry>
        </mxCell>
        <mxCell id="4tsxPiN9Ej_s7Ec1uIhf-80" value="" style="endArrow=block;endFill=0;endSize=12;html=1;rounded=0;" parent="1" edge="1">
          <mxGeometry width="160" relative="1" as="geometry">
            <mxPoint x="110" y="-1370" as="sourcePoint" />
            <mxPoint x="330" y="-1370" as="targetPoint" />
          </mxGeometry>
        </mxCell>
        <mxCell id="4tsxPiN9Ej_s7Ec1uIhf-81" value="" style="endArrow=block;endFill=0;endSize=12;html=1;rounded=0;" parent="1" edge="1">
          <mxGeometry width="160" relative="1" as="geometry">
            <mxPoint x="340" y="-1310" as="sourcePoint" />
            <mxPoint x="580" y="-1310" as="targetPoint" />
          </mxGeometry>
        </mxCell>
        <mxCell id="4tsxPiN9Ej_s7Ec1uIhf-82" value="" style="endArrow=block;endFill=0;endSize=12;html=1;rounded=0;dashed=1;" parent="1" edge="1">
          <mxGeometry width="160" relative="1" as="geometry">
            <mxPoint x="580" y="-1240" as="sourcePoint" />
            <mxPoint x="340" y="-1240" as="targetPoint" />
          </mxGeometry>
        </mxCell>
        <mxCell id="4tsxPiN9Ej_s7Ec1uIhf-83" value="" style="endArrow=block;endFill=0;endSize=12;html=1;rounded=0;dashed=1;" parent="1" edge="1">
          <mxGeometry width="160" relative="1" as="geometry">
            <mxPoint x="330" y="-1190" as="sourcePoint" />
            <mxPoint x="110" y="-1190" as="targetPoint" />
          </mxGeometry>
        </mxCell>
        <mxCell id="4tsxPiN9Ej_s7Ec1uIhf-84" value="" style="endArrow=block;endFill=0;endSize=12;html=1;rounded=0;" parent="1" edge="1">
          <mxGeometry width="160" relative="1" as="geometry">
            <mxPoint x="110" y="-1130" as="sourcePoint" />
            <mxPoint x="330" y="-1130" as="targetPoint" />
          </mxGeometry>
        </mxCell>
        <mxCell id="4tsxPiN9Ej_s7Ec1uIhf-85" value="" style="endArrow=block;endFill=0;endSize=12;html=1;rounded=0;entryX=0.992;entryY=0.729;entryDx=0;entryDy=0;entryPerimeter=0;" parent="1" target="4tsxPiN9Ej_s7Ec1uIhf-71" edge="1">
          <mxGeometry width="160" relative="1" as="geometry">
            <mxPoint x="340" y="-1070" as="sourcePoint" />
            <mxPoint x="560" y="-1070" as="targetPoint" />
          </mxGeometry>
        </mxCell>
        <mxCell id="4tsxPiN9Ej_s7Ec1uIhf-86" value="" style="endArrow=block;endFill=0;endSize=12;html=1;rounded=0;dashed=1;" parent="1" edge="1">
          <mxGeometry width="160" relative="1" as="geometry">
            <mxPoint x="580" y="-1010" as="sourcePoint" />
            <mxPoint x="340" y="-1011" as="targetPoint" />
          </mxGeometry>
        </mxCell>
        <mxCell id="4tsxPiN9Ej_s7Ec1uIhf-88" value="" style="endArrow=block;endFill=0;endSize=12;html=1;rounded=0;" parent="1" edge="1">
          <mxGeometry width="160" relative="1" as="geometry">
            <mxPoint x="330" y="-970" as="sourcePoint" />
            <mxPoint x="110" y="-970" as="targetPoint" />
          </mxGeometry>
        </mxCell>
        <mxCell id="4tsxPiN9Ej_s7Ec1uIhf-89" value="" style="endArrow=block;endFill=0;endSize=12;html=1;rounded=0;" parent="1" edge="1">
          <mxGeometry width="160" relative="1" as="geometry">
            <mxPoint x="110" y="-910" as="sourcePoint" />
            <mxPoint x="330" y="-910" as="targetPoint" />
          </mxGeometry>
        </mxCell>
        <mxCell id="4tsxPiN9Ej_s7Ec1uIhf-90" value="" style="endArrow=block;endFill=0;endSize=12;html=1;rounded=0;entryX=0.942;entryY=0.714;entryDx=0;entryDy=0;entryPerimeter=0;" parent="1" target="4tsxPiN9Ej_s7Ec1uIhf-75" edge="1">
          <mxGeometry width="160" relative="1" as="geometry">
            <mxPoint x="340" y="-860" as="sourcePoint" />
            <mxPoint x="560" y="-860" as="targetPoint" />
          </mxGeometry>
        </mxCell>
        <mxCell id="4tsxPiN9Ej_s7Ec1uIhf-91" value="" style="endArrow=block;endFill=0;endSize=12;html=1;rounded=0;dashed=1;" parent="1" edge="1">
          <mxGeometry width="160" relative="1" as="geometry">
            <mxPoint x="580" y="-790" as="sourcePoint" />
            <mxPoint x="340" y="-790" as="targetPoint" />
          </mxGeometry>
        </mxCell>
        <mxCell id="4tsxPiN9Ej_s7Ec1uIhf-92" value="" style="endArrow=block;endFill=0;endSize=12;html=1;rounded=0;dashed=1;" parent="1" edge="1">
          <mxGeometry width="160" relative="1" as="geometry">
            <mxPoint x="330" y="-750" as="sourcePoint" />
            <mxPoint x="110" y="-750" as="targetPoint" />
          </mxGeometry>
        </mxCell>
        <mxCell id="4tsxPiN9Ej_s7Ec1uIhf-94" value="" style="endArrow=block;dashed=1;endFill=0;endSize=12;html=1;rounded=0;" parent="1" target="4tsxPiN9Ej_s7Ec1uIhf-93" edge="1">
          <mxGeometry width="160" relative="1" as="geometry">
            <mxPoint x="334.5" y="-1585" as="sourcePoint" />
            <mxPoint x="335" y="-720" as="targetPoint" />
          </mxGeometry>
        </mxCell>
        <mxCell id="4tsxPiN9Ej_s7Ec1uIhf-93" value="" style="html=1;points=[];perimeter=orthogonalPerimeter;outlineConnect=0;targetShapes=umlLifeline;portConstraint=eastwest;newEdgeStyle={&quot;edgeStyle&quot;:&quot;elbowEdgeStyle&quot;,&quot;elbow&quot;:&quot;vertical&quot;,&quot;curved&quot;:0,&quot;rounded&quot;:0};" parent="1" vertex="1">
          <mxGeometry x="330" y="-1520" width="10" height="780" as="geometry" />
        </mxCell>
        <mxCell id="4tsxPiN9Ej_s7Ec1uIhf-96" value="" style="endArrow=block;dashed=1;endFill=0;endSize=12;html=1;rounded=0;" parent="1" target="4tsxPiN9Ej_s7Ec1uIhf-95" edge="1">
          <mxGeometry width="160" relative="1" as="geometry">
            <mxPoint x="584.5" y="-1585" as="sourcePoint" />
            <mxPoint x="585" y="-720" as="targetPoint" />
          </mxGeometry>
        </mxCell>
        <mxCell id="4tsxPiN9Ej_s7Ec1uIhf-95" value="" style="html=1;points=[];perimeter=orthogonalPerimeter;outlineConnect=0;targetShapes=umlLifeline;portConstraint=eastwest;newEdgeStyle={&quot;edgeStyle&quot;:&quot;elbowEdgeStyle&quot;,&quot;elbow&quot;:&quot;vertical&quot;,&quot;curved&quot;:0,&quot;rounded&quot;:0};" parent="1" vertex="1">
          <mxGeometry x="580" y="-1330" width="10" height="550" as="geometry" />
        </mxCell>
        <mxCell id="Xq4jzpdKU6QALte5hg_w-1" value="Staff salary management" style="text;html=1;align=center;verticalAlign=middle;resizable=0;points=[];autosize=1;strokeColor=none;fillColor=none;" parent="1" vertex="1">
          <mxGeometry x="80" y="-1710" width="160" height="30" as="geometry" />
        </mxCell>
      </root>
    </mxGraphModel>
  </diagram>
</mxfile>
